<?xml version="1.0" encoding="UTF-8"?><svg xmlns="http://www.w3.org/2000/svg" xmlns:xlink="http://www.w3.org/1999/xlink" height="500.0" preserveAspectRatio="xMidYMid meet" version="1.0" viewBox="0.0 0.0 500.0 500.0" width="500.0" zoomAndPan="magnify"><g id="Illustration"><g id="change1_1"><path d="M249.9985657,402.7662048c-84.2357788,0-152.7647705-68.5289917-152.7647705-152.7647705 S165.7627869,97.2366638,249.9985657,97.2366638s152.7647705,68.5289917,152.7647705,152.7647705 S334.2343445,402.7662048,249.9985657,402.7662048z M249.9985657,109.0023804 c-77.7468262,0-140.999054,63.252243-140.999054,140.999054s63.2522278,140.999054,140.999054,140.999054 s140.999054-63.2522278,140.999054-140.999054S327.7453918,109.0023804,249.9985657,109.0023804z" fill="#04182d"/></g><g id="change2_1"><circle cx="249.999" cy="250" fill="#04bb9c" r="90.245"/></g><g id="change1_2"><path d="M275.7906494,500h-51.5841675c-2.8983459,0-5.3629456-2.1112671-5.8110504-4.97229l-8.0257416-51.2940369 c-24.8786316-5.0527344-48.1659088-14.6985474-69.339035-28.7191772l-41.9441071,30.5949097 c-2.3439484,1.709137-5.5755005,1.4563599-7.6264648-0.5946045l-36.4748764-36.474884 c-2.0509567-2.0480957-2.3008652-5.2854004-0.5946045-7.6264648l30.5948944-41.9440918 c-14.0206299-21.1731262-23.6664505-44.4604187-28.7191582-69.3390503l-51.2940598-8.0257263 C2.1112802,281.1564636,0,278.691864,0,275.7935181v-51.5870361c0-2.8983459,2.1112802-5.3629456,4.9722805-5.8110504 l51.2940598-8.0257416c5.0527077-24.8786316,14.6956596-48.1659088,28.7191582-69.339035L54.3906021,99.0894241 c-1.7062607-2.3410797-1.4563522-5.5783768,0.5946045-7.6264648L91.460083,54.9852066 c2.0452194-2.0509567,5.2825165-2.3037376,7.6264648-0.5946045l41.9441071,30.5948944 c21.1731262-14.0206299,44.4604034-23.6664505,69.3361664-28.7191582l8.0286102-51.2940598 C218.8435364,2.1112802,221.308136,0,224.2064819,0h51.5841675c2.8983459,0,5.3629456,2.1112802,5.8110657,4.9722805 l8.028595,51.2940598c24.8786316,5.0527077,48.1659241,14.6985283,69.3361816,28.7191582l41.9440918-30.5948944 c2.3439331-1.7091331,5.5783691-1.4563522,7.6264648,0.5946045l36.4777527,36.4777527 c2.0509644,2.0480881,2.3008423,5.2853851,0.5946045,7.6264648l-30.5949097,41.9412308 c14.0234985,21.1788635,23.669342,44.4690094,28.7163086,69.339035l51.2969055,8.0257416 C497.8887329,218.8435364,500,221.308136,500,224.2064819v51.5870361c0,2.8983459-2.1112671,5.3629456-4.97229,5.8110657 l-51.2969055,8.0257263c-5.0469666,24.8700256-14.6928101,48.1601563-28.7163086,69.3390503l30.5949097,41.9440918 c1.7062378,2.3410645,1.4563599,5.5783691-0.5946045,7.6264648l-36.4777527,36.474884 c-2.0480957,2.0509644-5.2825317,2.3037415-7.6264648,0.5946045l-41.9440918-30.5949097 c-21.1702576,14.0206299-44.45755,23.6664429-69.3361816,28.7191772l-8.028595,51.2940369 C281.153595,497.8887329,278.6889954,500,275.7906494,500z M229.2419434,488.2342834h41.5161133l7.8878479-50.4064636 c0.3849182-2.4732056,2.2980042-4.4293823,4.7597046-4.8774719c26.1482849-4.7453613,50.486908-14.8249207,72.3379211-29.9629517 c2.0596008-1.4247742,4.7941895-1.393158,6.8164368,0.0832825l41.2173462,30.0663757l29.3597412-29.3568726l-30.0663757-41.2173462 c-1.4735718-2.0222473-1.5080566-4.7568359-0.0832825-6.8164063c15.1408997-21.8625488,25.220459-46.2011414,29.9600525-72.3379211 c0.4452515-2.4645996,2.4042969-4.3776855,4.8775024-4.7626038l50.4093323-7.8878479v-41.5161133l-50.4093323-7.8878479 c-2.4732056-0.3849182-4.432251-2.2979889-4.8775024-4.7625885c-4.7395935-26.136795-14.8191528-50.4754028-29.9600525-72.3379211 c-1.4247742-2.0595703-1.3902893-4.7941895,0.0832825-6.8164215l30.0663757-41.2144852l-29.3597412-29.359726L362.559967,96.929306 c-2.0222473,1.473587-4.7568359,1.5080566-6.8164368,0.0833054c-21.8510132-15.1380234-46.1896362-25.2175903-72.3379211-29.962944 c-2.4617004-0.4481125-4.3747864-2.404274-4.7597046-4.877491l-7.8878479-50.406456h-41.5189819l-7.8878479,50.406456 c-0.3849182,2.473217-2.2980042,4.4293785-4.7597198,4.877491c-26.1454163,4.7453537-50.484024,14.8249207-72.3379211,29.962944 c-2.0567017,1.4247513-4.7941895,1.3902817-6.8164215-0.0833054L96.2198029,66.8629532l-29.3568497,29.359726 l30.0663528,41.2144852c1.473587,2.0222321,1.5080566,4.7568512,0.0833054,6.8164215 c-15.1380234,21.856781-25.2175903,46.1953888-29.962944,72.3407898c-0.4481125,2.461731-2.404274,4.3748016-4.877491,4.7597198 l-50.406456,7.8878479v41.5161133l50.406456,7.8878479c2.473217,0.3849182,4.4293785,2.2980042,4.877491,4.7597046 c4.7453537,26.1454163,14.8249207,50.4840393,29.962944,72.3408203c1.4247513,2.0567017,1.3902817,4.7941589-0.0833054,6.8164063 l-30.0663528,41.2173462l29.3568497,29.3568726l41.2173615-30.0663757 c2.0222321-1.4764404,4.7597198-1.5080566,6.8164215-0.0832825c21.856781,15.138031,46.1953888,25.2175903,72.3407898,29.9629517 c2.461731,0.4480896,4.3748016,2.4042664,4.7597198,4.8774719L229.2419434,488.2342834z M494.1171265,275.7935181h0.0574646 H494.1171265z" fill="#04182d"/></g></g></svg>